#format: frame checksums
#version: 1
#hash: MD5
#tb 0: 1/25
#stream#, dts,        pts, duration,     size, hash
0,          0,          0,        1,    62876, 5e2a5276e10b86511fb8101733bc4795
0,          1,          1,        1,    62832, fb1e0a7b2bdbcbada9892e3db7be7821
0,          2,          2,        1,    64076, e0d2af56a9c80e3e8096cf246260f3ca
0,          3,          3,        1,    62724, bceca3c261206308030e2d7ad45e7599
0,          4,          4,        1,    61664, ca8c005ba88cf1c97d49fe25f4830383
0,          5,          5,        1,    63296, 7967f2592369b10bcd3ecac43413daeb
0,          6,          6,        1,    63528, 5374d62636243ba8f3fd1d7f31b632a8
0,          7,          7,        1,    62784, 8c6b4791881433bfa65732ecb5b16866
0,          8,          8,        1,    63176, 5b63d41ddcb0ab291a0d435d5f581ee8
0,          9,          9,        1,    63492, e0b3ecdb25bda555ab9b9dfd98179653
0,         10,         10,        1,    63328, 3dd8397b620d84ca3e7a78f9c8d350d3
0,         11,         11,        1,    63328, 1af5a1dddff26660e0d7a32e24bd9276
0,         12,         12,        1,    62384, 1ff3c26a6bac33d80b63c0f8595201ea
0,         13,         13,        1,    62944, 9c02a60be982847673da55180ef2c18d
0,         14,         14,        1,    63932, ad7a22cf139c6e4ab8c5e53d9db3e68e
0,         15,         15,        1,    64020, 53c8612a310d938be1080de4eebb18ba
0,         16,         16,        1,    62940, bb481e1e906a4fdfdafa1cc15ebcbb5c
0,         17,         17,        1,    63052, 0d97caa8514b4344c0ad8115e10b48c1
0,         18,         18,        1,    62404, 0b05bb86b7bb1deaa3a1f0105adb823a
0,         19,         19,        1,    62148, e70896d0e240f44275ca7d34e4de1b90
0,         20,         20,        1,    61692, 5811d0049807b3e30bb165c106f121f6
0,         21,         21,        1,    61704, 7b0714038c38fbaba0f30077e1fff859
0,         22,         22,        1,    61964, 01e0aa600de8039bcfa29f4855861f72
0,         23,         23,        1,    62812, a9374a4f24248363aa1011d48f352bea
0,         24,         24,        1,    63480, 9837389866f467888b58d869c6c629c3
0,         25,         25,        1,    62708, e463497b45db8c805fe8ef6903b1ce9c
0,         26,         26,        1,    62252, 4a386a10f454c4a16314ce824348ccfc
0,         27,         27,        1,    61752, ec17bfb853b0347ed5851adec930ac88
0,         28,         28,        1,    60248, 2dce5d2345acaebe8d2ffe68248db51b
0,         29,         29,        1,    60232, 69e26cd6734e29179a152271d31ec4d9
0,         30,         30,        1,    61240, 4eb9641a3a7f96a1db6291ec1208b243
0,         31,         31,        1,    62228, 6ea9280e5c470a1843e2af7b086270b0
0,         32,         32,        1,    62636, cab91136cea5c672b970dbc9e1491ea1
0,         33,         33,        1,    63840, 25dd643075412e90e16fd6732a7cb218
0,         34,         34,        1,    62996, 173c292ebe568e845835e63ae98064f7
0,         35,         35,        1,    62476, 4bdc99c66bcd82238d84f478b2be6d6d
0,         36,         36,        1,    61744, fb3161857f91255e2fa3efff1fadfd4e
0,         37,         37,        1,    62012, a7f45644fba6f9d3088800a18a78fe93
0,         38,         38,        1,    61748, 3c606f8fc6f7535651f1203a0d390a1d
0,         39,         39,        1,    61688, 636f94c06a5af282026aa82010362fd6
0,         40,         40,        1,    60528, 157ff55e69660cb272c94ef1bf56f510
0,         41,         41,        1,    62248, 1001e1aa4249cdc55bfc1f7daea931ad
0,         42,         42,        1,    61832, 9435239c2ebe6bfee404c002c1f1a683
0,         43,         43,        1,    61688, 6bdc7de71e539f50ddc7961e7e56e822
0,         44,         44,        1,    61216, adf9cb20324a6ea37840aa96cc57f67f
0,         45,         45,        1,    60192, 4d170c4d05a84440c9dbf60902902d70
0,         46,         46,        1,    59388, f292adfcec971be4dd87e68da7edc662
0,         47,         47,        1,    59620, ad02e16282fc53a395a3b61c077f56ca
0,         48,         48,        1,    59584, e9cad9e33a2d9508ab4feabfc9545738
0,         49,         49,        1,    58800, 83eed6619d5fa154a30128761561ff90
